# xmcd
#
# Track frame offsets:
#  150
#  3766
#  22071
#  44606
#  64123
#  115914
#  132057
#  166649
#  189387
#  229099
#
# Disc length: 4717 seconds
#
# Revision: 0
# Processed by: cddbd v1.5.1PL0 Copyright (c) Steve Scherf et al.
# Submitted via: Collectorz.com_Music_Collector 6.9
#
DISCID=77126b0a
DTITLE=The Black Crowes - Live @ The Fillmore
DYEAR=2005
DGENRE=
TTITLE0=Intro
TTITLE1=One Mirror to Many
TTITLE2=Sting Me
TTITLE3=Go Faster
TTITLE4=Jam, Black Moon Creeping
TTITLE5=Paint an 8
TTITLE6=Bad Luck Eyes Goodbye
TTITLE7=Space Captain
TTITLE8=Jam How Much for your wings
TTITLE9=Jam Thorn in my pride
EXTD=
EXTT0=
EXTT1=
EXTT2=
EXTT3=
EXTT4=
EXTT5=
EXTT6=
EXTT7=
EXTT8=
EXTT9=
PLAYORDER=
